# xmcd
#
# Track frame offsets:
#	150
#	14492
#	29965
#	46465
#	64182
#	79115
#	93872
#	106467
#
# Disc length: 1591 seconds
#
# Revision: 0
# Processed by: cddbd v1.4PL0 Copyright (c) Steve Scherf et al.
# Submitted via: EasyCDDAExtractor 5.0.5.1
#
DISCID=68063508
DTITLE=Vince Gill - Vince Gill And Friends
DYEAR=1994
DGENRE=Country
TTITLE0=Turn Me Loose (With Janis Oliver and Herb Pedersen)
TTITLE1=What If I Say Goodbye (With Emmylou Harris)
TTITLE2=Oklahoma Borderline (With Rodney Crowell and Herb Pedersen)
TTITLE3=The Way Back Home (With Emmylou Harris and Bonnie Raitt)
TTITLE4=Let's Do Something (With Bonnie Raitt)
TTITLE5=Oh Carolina (With Emmylou Harris and Carl Jackson)
TTITLE6=Don't Say That You Love Me (With Janis Oliver)
TTITLE7=Everybody's Sweetheart (With Sweethearts Of The Rodeo)
EXTD=ID3G: 2
EXTT0=
EXTT1=
EXTT2=
EXTT3=
EXTT4=
EXTT5=
EXTT6=
EXTT7=
PLAYORDER=
